<svg width="24" height="24" viewBox="0 0 24 24" fill="none" xmlns="http://www.w3.org/2000/svg">
<path d="M21.6 0H2.4C1.07344 0 0 1.07344 0 2.4V21.6C0 22.9266 1.07344 24 2.4 24H21.6C22.9266 24 24 22.9266 24 21.6V2.4C24 1.07344 22.9266 0 21.6 0Z" fill="#DC3726"/>
<path d="M10.6525 4.75586V13.4301C10.6525 15.0871 11.5479 15.3848 12.2018 15.3848C12.8557 15.3848 13.69 14.8785 13.69 13.8215C13.69 13.1277 13.0947 12.3965 12.2018 12.3941C11.8221 12.3941 11.4986 12.5277 11.2502 12.7316V8.47539C11.5596 8.42382 11.876 8.3957 12.2018 8.3957C15.2557 8.3957 17.6604 10.7676 17.6604 13.8191C17.6604 16.8707 15.2557 19.2449 12.2018 19.2449C9.14785 19.2449 6.74316 17.0512 6.74316 13.4301V4.75586H10.6525Z" fill="white"/>
</svg> 